.
 
http://www.scenetime.com    -   SceneTime [ We been having it ] !!!


How come you press harder on a remote control when you know the battery is dead? so you better seed to get speed ;)

        Seed back for speed


...................................NFO:.................................................::::::::::::::Enjoy:Another:Release:From:TDP::::::::::::::

[IMG]http://shareimage.org/images/o4sq1trw2m4sef2lmse.jpg[/IMG]

TiTLE.........: Empire.of.Assassins.2011.DVDRip.AC3-TDP
RUNTiME.......: 1h 32mn
FORMAT........: XviD
RAR COUNT.....: 101x15MB
SOURCE .......: DVD9
GENRE.........: Action
AUDIO.........: English 
SUBTITLES.....: None
SAMPEL........: YES
RELEASE DATE..: 07-07-2011

IMDB : http://www.imdb.com/title/tt1891794/

Plot :
One man is out for revenge after a life-altering event destroys his family. 
After years of preparation he seeks out his justice, while unaware of their relation, 
on his brother. As these two brothers seek to destroy each other certain memories are 
triggered and although many trusted allies will be dishonest and misleading neither one 
will stop until they know the truth.



General

Complete name                    : Empire.of.Assassins.2011.DVDRip.AC3-TDP
Format                           : AVI
Format/Info                      : Audio Video Interleave
Format profile                   : OpenDML
File size                        : 1.40 GiB
Duration                         : 1h 32mn
Overall bit rate                 : 2 168 Kbps
Writing application              : MEncoder version 4.0.0 building on 20100917


Video

Format                           : MPEG-4 Visual
Format profile                   : Simple@L1
Format settings, BVOP            : No
Format settings, QPel            : No
Format settings, GMC             : No warppoints
Format settings, Matrix          : Default (H.263)
Codec ID                         : DX50
Codec ID/Hint                    : DivX 5
Duration                         : 1h 32mn
Bit rate                         : 1 713 Kbps
Width                            : 720 pixels
Height                           : 404 pixels
Display aspect ratio             : 16:9
Frame rate                       : 29.970 fps
Color space                      : YUV
Chroma subsampling               : 4:2:0
Bit depth                        : 8 bits
Scan type                        : Progressive
Compression mode                 : Lossy
Bits/(Pixel*Frame)               : 0.197
Stream size                      : 1.10 GiB (79%)
Writing library                  : DigiArty AV Encoder Core

Audio

Format                           : AC-3
Format/Info                      : Audio Coding 3
Mode extension                   : CM (complete main)
Codec ID                         : 2000
Duration                         : 1h 32mn
Bit rate mode                    : Constant
Bit rate                         : 448 Kbps
Channel(s)                       : 6 channels
Channel positions                : Front: L C R, Side: L R, LFE
Sampling rate                    : 48.0 KHz
Bit depth                        : 16 bits
Compression mode                 : Lossy
Stream size                      : 296 MiB (21%)
Alignment                        : Split accross interleaves
Interleave, duration             : 500 ms (14.98 video frames)
Interleave, preload duration     : 500 ms


GREETS:

IMAGiNE,FLAWL3SS,ViSiON,FUSiON,Rx,CM8,SecretMyth,BirdFlu,ELEKTRI4KA,Serenity,INK,SUBLIME
And to all the other p2p grps past and present

Looking for : SYNCERS, CAMMERS, SEED/RiPBOXES for group use
CAPPERS, SiLVER SUPPLiERS, and R1-R2-R4 PRE-RETAiL SOURCE SUPPLIERS!
Always looking for CAM+LiNE+SCR+DVDSCR+BRSCR+RUS DVD+PRERETAIL BR & DVD
If you'd like to help, feel free to contact us at thedanishpirates@gmail.com